<?xml version="1.0" standalone="no"?><svg xmlns="http://www.w3.org/2000/svg" viewBox="0 0 1440 320"><path fill="#927359" fill-opacity="0.8" d="M0,96L30,117.3C60,139,120,181,180,192C240,203,300,181,360,176C420,171,480,181,540,192C600,203,660,213,720,213.3C780,213,840,203,900,181.3C960,160,1020,128,1080,106.7C1140,85,1200,75,1260,74.7C1320,75,1380,85,1410,90.7L1440,96L1440,320L1410,320C1380,320,1320,320,1260,320C1200,320,1140,320,1080,320C1020,320,960,320,900,320C840,320,780,320,720,320C660,320,600,320,540,320C480,320,420,320,360,320C300,320,240,320,180,320C120,320,60,320,30,320L0,320Z"></path></svg>