<?xml version="1.0" standalone="no"?><svg xmlns="http://www.w3.org/2000/svg" viewBox="0 0 1440 320"><path fill="#927359" fill-opacity="0.8" d="M0,192L30,202.7C60,213,120,235,180,224C240,213,300,171,360,154.7C420,139,480,149,540,149.3C600,149,660,139,720,128C780,117,840,107,900,101.3C960,96,1020,96,1080,106.7C1140,117,1200,139,1260,165.3C1320,192,1380,224,1410,240L1440,256L1440,320L1410,320C1380,320,1320,320,1260,320C1200,320,1140,320,1080,320C1020,320,960,320,900,320C840,320,780,320,720,320C660,320,600,320,540,320C480,320,420,320,360,320C300,320,240,320,180,320C120,320,60,320,30,320L0,320Z"></path></svg>